<!-- Generated by IcoMoon.io -->
<svg version="1.1" xmlns="http://www.w3.org/2000/svg" width="1024" height="1024" viewBox="0 0 1024 1024">
<title></title>
<g id="icomoon-ignore">
</g>
<path fill="#191970" d="M215.125 647.040c-0.121 59.359-48.171 107.454-107.501 107.648h-0.019c-59.385-0.145-107.484-48.259-107.605-107.637v-0.011c0.17-59.343 48.255-107.399 107.594-107.52h107.532zM269.355 647.040c0.169-59.328 48.231-107.375 107.549-107.52h0.014c59.332 0.145 107.393 48.192 107.563 107.504v269.371c-0.145 59.355-48.211 107.436-107.546 107.605h-0.016c-59.352-0.169-107.417-48.25-107.563-107.591v-0.014zM376.917 215.125c-59.322-0.169-107.369-48.201-107.563-107.501v-0.019c0.145-59.355 48.211-107.436 107.546-107.605h0.016c59.352 0.169 107.417 48.25 107.563 107.591v107.534zM376.917 269.355c59.337 0.169 107.393 48.226 107.563 107.546v0.016c-0.169 59.337-48.226 107.393-107.546 107.563h-269.328c-59.355-0.145-107.436-48.211-107.605-107.546v-0.016c0.169-59.352 48.25-107.417 107.591-107.563h0.014zM808.789 376.917c0.169-59.352 48.25-107.417 107.591-107.563h0.014c59.355 0.145 107.436 48.211 107.605 107.546v0.016c-0.169 59.352-48.25 107.417-107.591 107.563h-107.619zM754.688 376.917c-0.17 59.367-48.274 107.442-107.636 107.563h-0.012c-59.328-0.169-107.375-48.231-107.52-107.549v-269.326c0.121-59.35 48.177-107.436 107.504-107.605h0.016c59.389 0.121 107.503 48.22 107.648 107.592v0.014zM647.040 808.789c59.389 0.121 107.503 48.22 107.648 107.592v0.014c-0.145 59.385-48.259 107.484-107.637 107.605h-0.011c-59.343-0.17-107.399-48.255-107.52-107.594v-107.617zM647.040 754.688c-59.358-0.17-107.423-48.28-107.52-107.639v-0.009c0.145-59.323 48.197-107.375 107.506-107.52h269.369c59.35 0.121 107.436 48.177 107.605 107.504v0.016c-0.121 59.389-48.22 107.503-107.592 107.648h-0.014z"></path>
</svg>
